<?xml version="1.0" standalone="no"?>
<!DOCTYPE svg PUBLIC "-//W3C//DTD SVG 20010904//EN"
 "http://www.w3.org/TR/2001/REC-SVG-20010904/DTD/svg10.dtd">
<svg version="1.0" xmlns="http://www.w3.org/2000/svg"
 width="4868.000000pt" height="4868.000000pt" viewBox="0 0 4868.000000 4868.000000"
 preserveAspectRatio="xMidYMid meet">
<metadata>
Created by potrace 1.14, written by Peter Selinger 2001-2017
</metadata>
<g transform="translate(0.000000,4868.000000) scale(0.100000,-0.100000)"
fill="#000000" stroke="none">
<path d="M23965 44759 c-71 -3 -218 -7 -326 -8 -215 -1 -562 -17 -704 -31 -49
-5 -133 -14 -185 -19 -52 -6 -174 -15 -270 -21 -96 -6 -200 -17 -230 -24 -30
-8 -131 -19 -225 -26 -93 -6 -190 -16 -215 -21 -25 -5 -103 -16 -175 -24 -71
-8 -182 -24 -245 -35 -63 -11 -155 -25 -205 -31 -49 -5 -108 -14 -130 -19 -22
-5 -85 -16 -140 -25 -55 -8 -113 -20 -130 -25 -16 -5 -79 -16 -140 -25 -60 -8
-130 -21 -155 -29 -25 -8 -83 -19 -130 -26 -47 -6 -111 -20 -143 -31 -31 -10
-72 -19 -90 -19 -19 0 -69 -10 -113 -21 -43 -12 -117 -30 -164 -40 -47 -10
-132 -29 -190 -43 -58 -15 -145 -35 -195 -46 -49 -11 -101 -25 -114 -31 -13
-5 -60 -17 -105 -25 -44 -9 -92 -22 -106 -29 -14 -7 -55 -18 -90 -25 -36 -6
-98 -22 -138 -35 -40 -14 -81 -25 -92 -25 -10 0 -43 -9 -72 -19 -29 -11 -75
-25 -103 -32 -27 -6 -108 -31 -180 -54 -71 -24 -144 -46 -162 -49 -17 -4 -48
-16 -69 -27 -21 -10 -50 -19 -64 -19 -14 0 -48 -11 -75 -24 -28 -12 -68 -26
-89 -30 -22 -4 -67 -18 -100 -31 -71 -27 -134 -49 -226 -76 -36 -10 -81 -25
-100 -33 -19 -7 -69 -26 -110 -41 -41 -14 -100 -37 -130 -50 -30 -13 -77 -31
-105 -40 -134 -45 -188 -66 -208 -80 -12 -8 -28 -15 -35 -15 -8 0 -40 -11 -71
-25 -65 -28 -239 -97 -326 -130 -76 -28 -127 -50 -188 -81 -26 -13 -53 -24
-61 -24 -7 0 -38 -13 -69 -30 -31 -16 -61 -30 -66 -30 -9 0 -105 -43 -257
-116 -39 -19 -75 -34 -81 -34 -6 0 -21 -9 -35 -19 -13 -11 -38 -23 -54 -27
-16 -3 -49 -17 -74 -29 -25 -13 -79 -39 -120 -58 -145 -68 -426 -208 -525
-262 -55 -30 -116 -62 -135 -70 -19 -9 -44 -21 -55 -27 -11 -7 -38 -21 -60
-31 -22 -11 -67 -36 -100 -56 -92 -56 -116 -69 -165 -91 -25 -12 -52 -25 -60
-30 -14 -9 -43 -25 -150 -82 -25 -13 -70 -40 -100 -60 -30 -19 -84 -51 -120
-71 -36 -19 -94 -54 -130 -76 -36 -23 -83 -50 -105 -61 -22 -11 -67 -38 -100
-59 -33 -22 -103 -65 -155 -97 -52 -32 -104 -65 -115 -75 -11 -9 -36 -24 -55
-33 -19 -8 -46 -24 -60 -35 -21 -16 -286 -192 -342 -226 -9 -5 -47 -31 -85
-56 -37 -25 -78 -52 -89 -60 -122 -80 -290 -201 -304 -218 -3 -3 -41 -30 -85
-60 -44 -30 -98 -69 -120 -87 -22 -17 -69 -51 -103 -75 -89 -61 -104 -72 -238
-175 -257 -195 -352 -269 -413 -323 -60 -52 -118 -99 -217 -176 -58 -45 -100
-81 -204 -175 -52 -47 -139 -121 -193 -164 -280 -226 -1196 -1104 -1449 -1391
-44 -49 -144 -157 -223 -240 -78 -82 -174 -186 -212 -230 -38 -44 -116 -134
-173 -200 -226 -260 -422 -500 -702 -857 -84 -106 -143 -184 -238 -313 -48
-66 -99 -133 -113 -150 -13 -16 -30 -41 -37 -55 -7 -13 -34 -51 -60 -85 -25
-33 -78 -105 -116 -160 -38 -55 -76 -109 -84 -121 -8 -12 -38 -57 -67 -100
-28 -43 -64 -95 -78 -114 -32 -42 -204 -300 -225 -338 -9 -15 -41 -66 -73
-114 -31 -47 -57 -89 -57 -93 0 -4 -11 -20 -25 -37 -14 -16 -25 -35 -25 -42 0
-7 -13 -30 -30 -52 -16 -21 -30 -44 -30 -50 0 -5 -12 -26 -26 -45 -14 -19 -50
-77 -81 -129 -31 -52 -64 -107 -74 -121 -10 -15 -25 -42 -33 -60 -9 -19 -30
-54 -46 -79 -17 -25 -41 -67 -55 -95 -14 -27 -41 -75 -60 -105 -19 -30 -41
-70 -49 -89 -9 -18 -31 -59 -50 -90 -37 -61 -66 -114 -156 -286 -77 -148 -243
-475 -255 -502 -6 -13 -26 -55 -46 -95 -78 -155 -148 -305 -159 -340 -6 -20
-18 -42 -26 -48 -7 -7 -14 -18 -14 -24 0 -6 -34 -80 -75 -163 -41 -84 -81
-169 -89 -190 -29 -77 -68 -169 -87 -204 -10 -20 -19 -43 -19 -51 0 -9 -13
-40 -30 -71 -16 -31 -30 -63 -30 -70 0 -8 -10 -34 -23 -58 -13 -24 -29 -66
-36 -94 -7 -27 -19 -60 -26 -71 -8 -12 -23 -46 -34 -75 -41 -114 -57 -155 -68
-174 -22 -40 -70 -171 -83 -223 -6 -28 -16 -54 -21 -57 -5 -3 -17 -35 -28 -70
-11 -35 -27 -78 -35 -94 -9 -16 -20 -51 -26 -77 -5 -27 -19 -67 -29 -89 -22
-45 -53 -138 -80 -235 -10 -36 -25 -81 -34 -100 -18 -40 -42 -112 -63 -190 -9
-30 -37 -120 -64 -200 -26 -80 -51 -163 -55 -185 -4 -22 -15 -60 -25 -85 -11
-25 -24 -71 -29 -102 -6 -32 -17 -70 -25 -86 -8 -16 -22 -66 -32 -113 -9 -46
-22 -95 -29 -109 -7 -14 -18 -52 -24 -84 -6 -33 -20 -87 -30 -120 -25 -80 -81
-309 -117 -481 -9 -44 -25 -109 -36 -145 -10 -36 -23 -96 -29 -135 -5 -38 -18
-98 -29 -132 -11 -35 -24 -101 -30 -148 -6 -46 -17 -102 -25 -124 -7 -22 -19
-77 -25 -123 -6 -46 -20 -119 -30 -163 -11 -44 -24 -126 -30 -182 -6 -57 -17
-124 -25 -150 -8 -27 -19 -86 -25 -133 -6 -47 -18 -114 -25 -150 -7 -36 -18
-117 -25 -180 -6 -63 -20 -167 -30 -230 -10 -63 -21 -155 -25 -205 -4 -49 -15
-146 -26 -215 -11 -72 -23 -234 -29 -380 -6 -152 -17 -281 -26 -320 -47 -206
-78 -1461 -55 -2180 15 -444 37 -793 52 -823 7 -12 14 -64 16 -117 11 -281 25
-504 39 -604 8 -61 21 -167 29 -236 8 -69 21 -152 29 -185 9 -32 16 -81 16
-107 0 -66 19 -235 31 -278 5 -19 16 -89 24 -155 9 -66 22 -140 30 -165 8 -25
19 -93 25 -152 6 -59 17 -128 25 -155 9 -26 22 -96 30 -155 7 -59 21 -120 29
-136 8 -16 20 -74 25 -130 6 -56 20 -127 30 -159 11 -32 25 -92 30 -134 6 -42
17 -96 25 -120 8 -24 22 -84 31 -133 9 -50 21 -98 26 -108 6 -11 15 -46 20
-80 5 -33 17 -74 25 -91 9 -16 22 -69 29 -117 7 -48 20 -101 29 -117 8 -16 18
-54 22 -84 3 -30 15 -74 26 -98 11 -24 24 -72 29 -107 5 -34 17 -84 28 -111
10 -26 24 -75 31 -108 6 -33 18 -69 25 -81 7 -11 19 -50 26 -85 6 -35 20 -84
29 -109 28 -71 59 -169 79 -245 10 -38 25 -87 34 -109 10 -21 17 -46 17 -56 0
-9 11 -37 24 -61 12 -25 28 -72 34 -106 6 -34 20 -79 31 -102 12 -22 21 -48
21 -58 0 -11 9 -37 20 -58 12 -22 28 -69 36 -105 9 -35 22 -76 30 -90 7 -14
23 -52 35 -85 38 -110 67 -189 99 -270 18 -44 38 -98 46 -120 8 -22 23 -56 33
-75 10 -19 22 -51 26 -70 4 -19 15 -48 25 -65 10 -16 24 -52 31 -80 7 -27 20
-60 30 -73 10 -13 21 -37 24 -55 4 -18 16 -48 26 -67 10 -19 25 -53 33 -75 19
-53 62 -158 92 -222 13 -28 24 -54 24 -57 0 -3 22 -52 50 -110 27 -58 50 -109
50 -114 0 -4 11 -23 25 -42 14 -19 25 -41 25 -50 0 -9 9 -34 21 -55 11 -22 27
-60 36 -85 8 -25 20 -52 27 -60 7 -8 39 -71 73 -140 99 -203 137 -279 198
-395 32 -60 64 -123 72 -140 8 -16 20 -41 28 -55 8 -14 22 -41 30 -60 9 -19
20 -42 25 -50 14 -22 110 -200 170 -315 29 -55 72 -132 96 -172 24 -39 44 -76
44 -81 0 -5 8 -17 19 -26 10 -9 26 -37 36 -61 9 -25 20 -45 25 -45 4 0 13 -15
20 -33 7 -17 23 -48 35 -67 12 -19 48 -80 80 -135 33 -55 82 -136 110 -180 29
-44 65 -102 81 -128 16 -26 41 -64 56 -83 15 -20 30 -45 34 -57 4 -12 17 -35
30 -50 13 -16 24 -33 24 -38 0 -4 33 -57 73 -116 79 -118 89 -134 115 -177 9
-16 26 -40 38 -55 12 -14 28 -40 37 -58 9 -17 22 -37 29 -45 16 -16 35 -43 94
-132 25 -37 67 -96 92 -130 26 -33 55 -72 64 -86 10 -14 31 -43 47 -65 17 -22
37 -52 46 -67 14 -25 310 -424 354 -478 11 -14 36 -43 54 -65 18 -22 53 -67
77 -100 56 -75 151 -193 257 -321 295 -354 398 -476 447 -527 30 -32 61 -66
68 -76 11 -15 46 -56 157 -179 13 -15 63 -67 110 -117 48 -49 145 -153 216
-230 126 -137 487 -498 662 -664 48 -45 135 -129 193 -185 58 -55 146 -137
194 -181 49 -44 96 -87 105 -96 9 -9 122 -108 251 -220 129 -111 240 -208 246
-214 12 -12 76 -63 250 -200 21 -16 47 -39 58 -51 12 -11 73 -61 136 -109 63
-49 154 -121 201 -160 102 -83 269 -208 360 -270 21 -13 62 -44 92 -69 69 -56
283 -207 462 -326 33 -21 95 -65 138 -97 43 -32 100 -71 127 -88 26 -16 72
-46 102 -66 29 -20 67 -44 84 -55 17 -10 72 -46 122 -79 51 -33 115 -73 143
-90 27 -16 86 -52 129 -80 93 -59 135 -85 169 -104 15 -7 49 -28 77 -47 27
-18 70 -43 95 -57 101 -55 196 -111 224 -132 17 -12 71 -43 120 -70 50 -26
106 -58 125 -69 19 -12 78 -43 130 -70 52 -26 120 -63 150 -81 64 -37 227
-123 455 -239 168 -85 188 -94 245 -121 19 -9 105 -50 190 -92 85 -41 173 -83
195 -93 128 -58 186 -85 240 -110 95 -45 365 -161 424 -181 30 -10 59 -23 65
-28 6 -4 34 -16 62 -25 28 -9 68 -25 90 -36 21 -11 45 -20 54 -20 8 0 33 -11
55 -25 22 -13 48 -25 59 -25 10 0 59 -18 109 -41 99 -44 193 -81 272 -106 28
-8 63 -22 79 -30 16 -8 57 -23 90 -33 98 -30 210 -69 229 -80 9 -6 43 -17 75
-24 31 -8 91 -29 132 -46 41 -17 113 -42 160 -55 96 -27 191 -59 235 -79 17
-7 62 -19 100 -26 39 -7 81 -19 95 -26 27 -15 165 -58 240 -75 25 -6 108 -30
185 -54 77 -24 167 -49 200 -56 33 -6 71 -17 85 -24 14 -7 48 -16 75 -20 28
-4 82 -18 120 -30 39 -13 94 -26 123 -30 30 -3 75 -14 101 -25 26 -10 69 -21
97 -25 27 -4 74 -15 104 -25 30 -10 80 -21 110 -25 50 -6 94 -16 315 -70 39
-10 110 -24 160 -31 49 -8 112 -21 140 -30 27 -8 94 -19 147 -25 54 -5 116
-16 139 -24 23 -9 100 -22 172 -30 71 -9 151 -22 176 -30 25 -8 97 -19 158
-24 62 -6 139 -17 170 -25 32 -8 119 -20 193 -26 74 -7 163 -18 197 -26 34 -8
130 -19 213 -24 83 -6 176 -17 207 -25 32 -9 152 -19 287 -25 127 -6 269 -18
315 -26 144 -26 481 -33 1516 -33 1025 0 1352 7 1510 33 50 8 189 20 310 25
123 7 244 18 275 26 30 8 130 19 221 25 91 5 204 16 250 24 46 8 130 19 187
26 57 6 122 18 145 26 23 8 101 19 172 24 72 6 155 16 185 24 30 8 111 22 179
31 69 8 130 20 137 26 7 6 54 15 106 20 51 6 143 21 203 34 61 14 130 27 154
31 24 3 58 12 75 19 17 7 56 16 86 19 56 7 248 45 355 71 33 9 102 24 153 35
51 11 102 24 112 30 11 6 59 17 107 26 48 8 113 23 143 34 30 10 84 26 120 35
36 9 99 25 140 35 41 10 120 33 175 50 55 17 129 38 165 46 36 8 81 21 100 30
33 14 77 27 271 78 47 13 94 28 105 33 10 6 78 29 149 51 72 22 162 53 200 67
39 15 104 38 145 50 41 13 95 33 120 44 25 11 54 21 65 21 11 0 37 9 58 20 21
11 61 25 89 31 28 6 65 19 82 29 17 10 51 24 76 30 48 12 116 38 250 96 47 20
108 43 135 51 28 9 60 22 72 30 12 8 41 21 65 28 50 16 170 66 213 89 17 9 36
16 44 16 8 0 39 12 70 26 31 15 79 37 106 49 28 13 75 35 105 49 30 14 61 26
68 26 7 0 39 13 70 29 81 42 168 81 177 81 7 0 107 48 325 155 47 24 102 48
122 54 20 7 42 18 48 26 6 8 28 19 48 26 20 6 48 19 62 29 14 9 40 22 59 29
19 6 42 17 50 25 17 14 66 40 191 102 41 20 86 45 99 55 13 11 31 19 41 19 10
0 29 9 43 20 14 12 41 26 58 32 18 6 51 23 73 37 65 41 77 48 144 80 35 17 78
41 95 53 17 12 65 40 107 61 68 35 108 58 180 107 14 9 45 27 70 39 75 36 149
78 208 117 109 72 128 84 136 84 5 0 21 11 38 25 16 14 35 25 42 25 7 0 29 12
49 28 20 15 58 40 84 56 26 16 77 48 113 71 139 91 367 239 405 264 22 14 60
41 85 61 25 20 63 47 85 61 22 15 74 48 115 75 41 26 119 82 173 124 54 41
115 86 136 100 74 48 96 64 106 74 6 6 42 32 80 59 39 26 108 79 154 117 46
38 107 85 135 104 29 19 58 42 65 50 8 9 19 16 25 16 7 0 23 12 37 26 13 14
67 58 119 97 52 40 142 112 198 162 57 49 118 101 135 115 132 103 218 177
382 325 60 56 144 129 185 164 103 86 100 83 235 206 253 230 627 597 720 706
33 39 146 157 250 263 105 105 222 229 261 276 40 47 105 119 145 161 123 127
161 170 241 269 42 52 106 128 142 168 36 40 66 76 66 80 0 4 20 30 45 57 25
28 67 76 93 109 26 32 79 97 117 145 39 47 88 111 110 141 40 56 64 86 100
124 35 36 175 224 199 266 12 22 36 54 52 72 16 18 45 55 64 81 19 27 47 63
61 80 14 18 45 64 68 102 24 39 54 81 66 95 34 37 149 200 174 246 12 21 35
57 52 79 16 22 37 51 46 65 10 14 30 40 45 58 15 18 28 37 28 42 0 10 35 65
80 126 16 23 30 44 30 47 0 3 20 35 44 70 24 35 47 73 50 85 4 11 31 50 61 87
30 37 55 71 55 77 0 6 11 26 25 44 14 18 25 37 25 41 0 5 29 53 64 107 36 54
74 119 87 145 30 62 30 62 64 112 17 24 50 80 75 126 25 45 53 92 63 104 10
12 27 40 38 63 11 22 26 52 34 66 8 14 20 37 27 51 7 14 25 44 39 65 15 22 50
84 78 139 29 55 59 111 66 125 8 14 30 57 49 96 19 39 46 88 60 109 14 21 26
43 26 50 0 7 18 45 40 86 22 41 49 94 60 119 12 25 25 52 30 60 6 8 28 53 51
100 42 88 52 107 69 138 5 9 16 33 25 52 8 19 19 42 24 50 21 33 152 318 221
480 17 41 37 86 44 100 8 14 19 42 26 63 7 21 23 57 36 80 13 23 24 49 24 58
0 9 8 27 19 40 10 13 24 42 31 64 7 22 19 51 26 65 14 26 53 127 84 220 10 30
27 73 39 95 12 21 21 45 21 52 0 8 11 36 25 63 14 27 25 55 25 62 0 7 9 29 19
49 11 19 25 55 32 80 7 24 18 53 25 64 6 11 17 38 24 60 7 22 20 58 31 80 10
22 23 62 29 89 6 27 18 61 26 75 8 14 23 55 33 91 11 36 26 85 35 110 8 25 22
65 30 90 7 25 30 89 49 143 19 54 41 122 48 150 6 29 16 57 20 63 5 6 18 44
28 85 11 41 34 115 51 164 18 50 42 129 54 176 13 47 28 95 35 107 6 12 18 58
25 102 8 45 22 92 30 105 9 13 21 57 27 97 6 40 17 88 25 106 7 18 18 61 24
95 6 34 20 85 30 112 11 28 26 79 34 115 25 112 64 273 80 330 38 140 65 261
71 325 4 38 15 90 25 116 10 25 24 84 30 130 7 46 20 116 30 155 10 38 21 101
25 140 4 38 15 101 25 139 11 39 28 142 39 230 11 88 25 174 30 192 5 17 12
71 16 120 3 48 15 124 25 168 10 44 22 114 25 155 4 41 15 127 25 190 10 63
24 194 30 290 7 96 18 199 26 228 7 30 18 142 24 250 6 108 17 256 26 327 28
250 34 497 34 1430 0 930 -6 1198 -34 1450 -8 72 -18 191 -21 265 -7 152 -23
303 -35 336 -5 12 -14 104 -20 205 -6 101 -20 240 -30 309 -11 69 -24 166 -30
215 -6 50 -17 119 -25 155 -8 36 -19 115 -25 175 -7 61 -20 155 -30 210 -10
55 -22 120 -26 145 -3 25 -13 63 -21 85 -8 22 -19 85 -24 140 -5 55 -17 129
-25 165 -8 36 -24 114 -35 174 -11 60 -24 117 -30 127 -5 10 -16 62 -24 116
-15 104 -43 227 -81 358 -12 44 -25 98 -29 120 -3 22 -22 101 -40 175 -19 74
-42 164 -51 200 -9 36 -27 103 -40 150 -12 47 -26 101 -30 120 -3 19 -15 53
-25 76 -10 23 -23 71 -29 109 -6 37 -17 80 -25 95 -7 14 -21 57 -29 94 -9 37
-22 79 -30 94 -8 15 -17 46 -21 67 -7 47 -157 516 -190 595 -13 30 -26 73 -30
95 -4 21 -15 55 -24 75 -10 19 -23 57 -30 83 -6 27 -19 60 -27 73 -9 13 -20
43 -26 66 -5 24 -17 61 -28 83 -10 22 -27 67 -38 100 -24 73 -72 201 -102 275
-13 30 -33 82 -45 115 -52 137 -75 192 -94 230 -12 21 -21 46 -21 54 0 13 -22
64 -86 196 -13 28 -24 55 -24 60 0 6 -8 26 -19 45 -10 19 -22 46 -26 60 -13
45 -123 294 -196 445 -16 33 -29 65 -29 71 0 6 -8 22 -18 35 -10 13 -26 44
-36 69 -10 25 -24 52 -31 60 -7 8 -16 26 -20 40 -7 28 -325 665 -386 775 -22
39 -46 86 -55 105 -9 19 -24 46 -34 60 -16 23 -180 313 -237 420 -41 76 -111
196 -207 353 -149 244 -182 297 -264 422 -47 72 -95 146 -107 165 -98 157
-440 659 -524 769 -31 41 -84 114 -121 166 -14 19 -59 80 -100 134 -41 54 -87
114 -101 132 -14 19 -59 78 -100 132 -41 53 -85 113 -99 131 -26 35 -100 127
-295 366 -122 149 -285 341 -349 410 -64 68 -184 205 -254 289 -236 283 -1001
1049 -1477 1481 -22 20 -65 59 -95 87 -112 101 -428 370 -504 428 -43 33 -114
92 -159 130 -95 83 -208 176 -272 225 -26 19 -98 76 -160 125 -151 119 -458
347 -579 430 -16 11 -41 29 -56 40 -107 78 -363 255 -368 255 -4 0 -25 15 -48
33 -36 29 -112 79 -466 309 -247 160 -799 490 -993 593 -22 11 -51 28 -65 37
-14 9 -81 46 -150 83 -69 37 -159 86 -200 108 -249 134 -789 397 -1165 567
-137 62 -272 123 -299 136 -28 13 -55 24 -61 24 -7 0 -38 13 -71 29 -65 33
-326 141 -414 172 -30 10 -64 23 -75 29 -119 57 -875 327 -1205 430 -58 18
-123 39 -145 47 -56 21 -286 92 -370 114 -38 11 -97 28 -130 38 -33 11 -76 23
-95 26 -19 4 -69 17 -110 30 -41 12 -104 30 -140 39 -36 9 -117 30 -180 47
-63 17 -144 37 -180 45 -36 8 -146 34 -245 59 -278 67 -354 84 -430 95 -38 5
-90 17 -114 25 -24 9 -85 22 -135 30 -51 7 -119 20 -151 29 -33 8 -98 20 -145
25 -47 6 -101 15 -120 21 -19 6 -91 19 -160 30 -139 21 -268 41 -440 70 -63
11 -160 24 -215 30 -55 6 -134 17 -175 25 -41 8 -156 22 -255 30 -99 8 -198
19 -220 24 -22 6 -107 15 -190 20 -317 22 -442 32 -505 41 -74 10 -426 26
-905 40 -359 11 -746 11 -950 -1z m1315 -839 c317 -17 881 -59 1080 -81 102
-11 248 -27 325 -35 77 -8 181 -21 230 -29 50 -8 133 -19 185 -25 160 -18 689
-106 1030 -171 291 -55 823 -174 1090 -244 331 -86 424 -112 665 -182 225 -66
670 -206 800 -252 44 -16 161 -57 260 -91 185 -64 213 -75 545 -204 271 -105
679 -273 815 -336 22 -10 150 -69 285 -130 135 -62 382 -181 550 -265 279
-139 354 -178 520 -268 30 -16 82 -44 115 -62 56 -30 243 -135 328 -184 124
-71 188 -107 234 -135 29 -17 94 -55 145 -85 51 -30 104 -62 118 -72 14 -9 75
-47 135 -85 277 -171 814 -525 935 -616 26 -20 189 -138 250 -182 55 -39 399
-297 456 -341 28 -22 97 -76 154 -120 234 -182 913 -756 1021 -864 9 -9 62
-59 119 -111 345 -315 902 -874 1166 -1170 27 -30 61 -66 74 -80 151 -156 607
-699 933 -1110 48 -61 339 -448 382 -509 17 -23 41 -57 55 -75 48 -65 222
-313 348 -499 95 -140 256 -387 352 -542 24 -38 58 -92 75 -120 18 -27 76
-124 130 -215 54 -91 108 -181 120 -200 26 -41 175 -305 301 -535 113 -206
448 -871 546 -1085 73 -159 85 -186 148 -330 16 -36 41 -92 55 -125 15 -33 38
-85 50 -115 13 -30 53 -127 90 -215 37 -88 77 -187 90 -220 13 -33 42 -107 65
-165 23 -58 52 -134 65 -170 13 -36 45 -121 70 -190 162 -442 352 -1032 468
-1455 109 -394 154 -575 250 -990 60 -259 201 -993 222 -1160 4 -27 15 -99 26
-160 10 -60 23 -150 29 -200 6 -49 20 -148 30 -220 10 -71 24 -179 30 -240 6
-60 18 -166 26 -235 18 -157 41 -407 49 -525 3 -49 12 -182 20 -295 8 -113 19
-309 25 -436 13 -295 13 -1322 0 -1615 -17 -375 -59 -962 -86 -1189 -8 -69
-19 -172 -24 -230 -11 -118 -60 -489 -91 -685 -11 -71 -27 -175 -35 -230 -34
-238 -139 -783 -226 -1175 -35 -158 -172 -714 -192 -780 -7 -25 -30 -106 -51
-180 -88 -320 -181 -620 -295 -960 -61 -181 -88 -258 -185 -530 -12 -36 -55
-148 -95 -250 -40 -102 -78 -201 -85 -220 -16 -43 -156 -382 -179 -430 -8 -19
-35 -82 -60 -140 -42 -99 -78 -181 -131 -295 -13 -27 -35 -77 -50 -110 -74
-160 -139 -295 -282 -580 -85 -170 -158 -314 -162 -320 -5 -5 -31 -53 -58
-105 -105 -198 -239 -440 -335 -605 -91 -155 -214 -360 -242 -405 -13 -19 -54
-84 -92 -145 -154 -247 -454 -700 -590 -890 -35 -49 -75 -106 -89 -125 -13
-19 -56 -78 -94 -130 -39 -52 -79 -106 -89 -120 -23 -33 -181 -243 -267 -355
-82 -107 -296 -373 -374 -466 -31 -36 -72 -86 -91 -110 -19 -24 -119 -140
-222 -259 -687 -790 -1347 -1442 -2162 -2135 -131 -111 -339 -283 -387 -320
-15 -11 -86 -67 -159 -125 -72 -58 -144 -114 -160 -125 -15 -11 -71 -54 -125
-95 -54 -41 -110 -84 -125 -95 -16 -11 -115 -83 -221 -160 -106 -77 -207 -148
-224 -159 -16 -10 -32 -22 -35 -25 -3 -4 -27 -22 -55 -41 -191 -128 -449 -300
-490 -326 -28 -18 -90 -58 -140 -90 -116 -75 -270 -170 -695 -424 -82 -49
-382 -216 -565 -314 -99 -53 -188 -101 -198 -107 -91 -50 -841 -419 -854 -419
-2 0 -37 -15 -76 -34 -90 -43 -380 -171 -512 -226 -180 -75 -569 -231 -635
-255 -36 -13 -114 -42 -175 -65 -454 -171 -1047 -362 -1611 -519 -232 -65
-764 -195 -1044 -256 -250 -54 -757 -150 -890 -170 -25 -3 -110 -17 -190 -30
-523 -85 -1260 -165 -1890 -205 -639 -40 -1682 -40 -2350 0 -158 10 -284 19
-655 50 -114 10 -426 44 -675 75 -156 19 -374 51 -555 80 -82 13 -170 27 -195
30 -207 31 -1014 191 -1180 235 -19 5 -100 25 -180 44 -233 56 -268 65 -400
100 -69 18 -161 43 -205 55 -361 97 -1037 312 -1435 457 -156 56 -549 206
-605 230 -16 7 -68 28 -115 47 -193 78 -362 150 -535 227 -71 32 -173 77 -225
100 -387 172 -1006 488 -1505 769 -188 106 -613 358 -717 427 -21 13 -55 35
-75 48 -127 80 -184 117 -421 275 -308 205 -277 184 -421 286 -62 44 -123 87
-135 95 -62 42 -602 448 -657 494 -14 11 -40 32 -59 46 -68 51 -434 351 -560
459 -14 12 -45 39 -69 59 -23 20 -55 48 -70 62 -15 14 -95 84 -177 155 -514
449 -1185 1120 -1657 1659 -78 88 -151 172 -163 186 -117 131 -472 560 -558
674 -23 29 -79 102 -126 162 -47 60 -94 121 -105 136 -11 15 -54 73 -95 128
-158 212 -200 270 -306 420 -208 296 -516 760 -595 897 -9 15 -49 80 -89 143
-119 189 -354 593 -479 823 -37 69 -75 138 -126 232 -153 282 -521 1039 -620
1274 -12 31 -42 99 -65 151 -119 269 -383 935 -446 1125 -7 22 -34 99 -59 170
-420 1195 -735 2503 -909 3775 -19 140 -37 284 -41 320 -3 36 -15 135 -25 220
-24 199 -76 834 -90 1100 -30 587 -30 1510 0 2095 14 271 65 894 90 1100 10
88 22 189 25 225 35 362 195 1319 295 1765 80 357 144 625 185 780 89 334 169
618 199 711 9 27 34 110 57 184 72 239 238 729 319 945 133 356 341 872 434
1080 13 28 40 88 61 135 21 47 53 118 71 158 19 40 34 74 34 76 0 14 312 647
430 871 113 216 339 626 402 730 14 22 57 96 98 165 40 69 82 141 95 160 44
69 90 145 100 162 36 66 279 442 430 665 227 337 672 946 839 1148 23 28 54
67 69 87 15 21 87 109 160 197 73 88 148 179 167 202 69 84 303 355 384 444
327 360 449 489 741 780 181 182 371 369 420 415 153 144 316 293 410 375 50
44 95 84 100 91 20 21 404 345 651 549 72 59 251 198 471 367 170 131 651 477
779 561 21 15 72 49 113 77 40 27 74 50 75 50 0 0 87 56 191 124 236 154 237
155 365 234 316 195 674 403 930 540 47 25 162 86 255 136 167 90 563 288 720
361 44 21 112 52 150 70 121 57 297 136 375 170 385 166 455 195 875 360 57
22 121 46 347 129 131 48 752 254 908 301 69 21 159 48 200 61 41 12 152 43
245 69 94 26 190 53 215 60 126 38 665 168 960 231 406 87 1137 215 1390 244
52 6 135 17 185 25 49 8 153 21 230 29 77 8 223 24 325 35 325 36 993 79 1455
95 192 6 1221 -4 1415 -14z"/>
<path d="M12780 29838 l0 -303 158 -22 c437 -61 973 -245 1155 -397 130 -109
203 -230 260 -431 l32 -110 3 -4480 c2 -3134 -1 -4505 -8 -4562 -49 -376 -221
-591 -560 -697 -124 -39 -400 -75 -810 -106 -80 -6 -164 -13 -188 -16 l-42 -5
2 -302 3 -302 2475 -3 c1361 -1 2485 0 2498 3 l23 6 -3 296 -3 297 -40 7 c-22
4 -89 12 -150 19 -212 22 -606 107 -775 166 -155 54 -317 158 -419 270 -89 97
-152 255 -181 450 -6 44 -10 834 -10 2222 l0 2152 2825 0 2825 0 -3 -2242 c-3
-2467 2 -2278 -61 -2452 -96 -263 -303 -426 -623 -490 -101 -20 -382 -51 -648
-71 -115 -9 -225 -18 -243 -21 l-32 -5 2 -302 3 -302 2495 0 2495 0 3 302 2
302 -57 6 c-266 27 -386 48 -662 112 -314 72 -471 148 -639 306 -94 90 -163
227 -200 397 -14 68 -16 481 -19 4550 -4 4934 -8 4600 58 4808 89 280 232 398
598 493 250 65 647 133 881 151 l35 3 0 300 0 300 -2497 3 -2498 2 0 -303 0
-302 138 -18 c225 -30 548 -111 767 -192 242 -90 352 -153 460 -260 108 -107
165 -216 222 -428 16 -57 18 -211 20 -1974 l3 -1913 -2825 0 -2825 0 0 1924
c0 1688 2 1934 15 2012 26 148 52 239 94 327 112 234 293 325 876 441 175 34
473 76 546 76 24 0 39 5 43 16 8 20 8 558 0 578 -6 15 -235 16 -2500 16
l-2494 0 0 -302z"/>
<path d="M26210 28505 l0 -1635 297 2 296 3 15 45 c196 606 505 1210 866 1690
215 286 456 539 616 647 80 54 173 100 248 122 176 53 633 81 1405 88 l597 5
-3 -4948 c-3 -4573 -4 -4954 -19 -5014 -51 -199 -100 -291 -212 -405 -90 -90
-188 -152 -323 -204 -86 -32 -313 -81 -468 -100 -174 -21 -551 -60 -690 -71
-77 -6 -159 -13 -183 -16 l-42 -5 2 -302 3 -302 2835 0 2835 0 3 302 2 301
-67 6 c-257 24 -409 48 -733 116 -423 89 -573 133 -697 201 -189 104 -296 229
-367 430 -72 201 -66 -252 -66 5146 l0 4863 453 0 c521 0 1022 -19 1322 -51
295 -31 482 -134 756 -415 255 -263 452 -533 697 -954 133 -230 307 -591 400
-830 32 -81 97 -278 106 -322 l6 -28 295 0 295 0 -2 1633 -3 1632 -5237 3
-5238 2 0 -1635z"/>
</g>
</svg>
